<svg width="100" height="100" viewBox="0 0 100 100" xmlns="http://www.w3.org/2000/svg">
  <defs>
    <pattern id="3d-pattern" patternUnits="userSpaceOnUse" width="100" height="100">
      <rect width="100" height="100" fill="none"/>
      
      <!-- Cube -->
      <path d="M20,20 L30,15 L40,20 L30,25 Z" fill="#FF9800" opacity="0.3"/>
      <path d="M20,20 L20,30 L30,35 L30,25 Z" fill="#FF9800" opacity="0.4"/>
      <path d="M30,25 L40,20 L40,30 L30,35 Z" fill="#FF9800" opacity="0.2"/>
      
      <!-- Sphere wireframe -->
      <circle cx="70" cy="25" r="12" stroke="#FF9800" stroke-width="0.5" fill="none" opacity="0.3"/>
      <ellipse cx="70" cy="25" rx="12" ry="5" stroke="#FF9800" stroke-width="0.5" fill="none" opacity="0.3"/>
      <line x1="58" y1="25" x2="82" y2="25" stroke="#FF9800" stroke-width="0.5" opacity="0.3"/>
      <line x1="70" y1="13" x2="70" y2="37" stroke="#FF9800" stroke-width="0.5" opacity="0.3"/>
      
      <!-- Pyramid -->
      <path d="M25,70 L35,60 L45,70 Z" fill="#FF9800" opacity="0.4"/>
      <path d="M25,70 L35,60 L35,80 Z" fill="#FF9800" opacity="0.3"/>
      <path d="M35,60 L45,70 L35,80 Z" fill="#FF9800" opacity="0.2"/>
      <path d="M25,70 L45,70 L35,80 Z" fill="#FF9800" opacity="0.35"/>
      
      <!-- Cylinder -->
      <ellipse cx="70" cy="65" rx="8" ry="3" stroke="#FF9800" stroke-width="0.5" fill="#FF9800" opacity="0.2"/>
      <ellipse cx="70" cy="80" rx="8" ry="3" stroke="#FF9800" stroke-width="0.5" fill="#FF9800" opacity="0.3"/>
      <line x1="62" y1="65" x2="62" y2="80" stroke="#FF9800" stroke-width="0.5" opacity="0.3"/>
      <line x1="78" y1="65" x2="78" y2="80" stroke="#FF9800" stroke-width="0.5" opacity="0.3"/>
    </pattern>
  </defs>
  <rect width="100%" height="100%" fill="url(#3d-pattern)"/>
</svg> 