<svg width="100" height="100" viewBox="0 0 100 100" xmlns="http://www.w3.org/2000/svg">
  <defs>
    <pattern id="design-pattern" patternUnits="userSpaceOnUse" width="100" height="100">
      <rect width="100" height="100" fill="none"/>
      <circle cx="10" cy="10" r="2" fill="#FF5E69" opacity="0.3"/>
      <circle cx="30" cy="10" r="3" fill="#FF5E69" opacity="0.4"/>
      <circle cx="50" cy="10" r="1.5" fill="#FF5E69" opacity="0.5"/>
      <circle cx="70" cy="10" r="2.5" fill="#FF5E69" opacity="0.3"/>
      <circle cx="90" cy="10" r="2" fill="#FF5E69" opacity="0.4"/>
      
      <circle cx="10" cy="30" r="3" fill="#FF5E69" opacity="0.3"/>
      <circle cx="30" cy="30" r="2" fill="#FF5E69" opacity="0.5"/>
      <circle cx="50" cy="30" r="3" fill="#FF5E69" opacity="0.3"/>
      <circle cx="70" cy="30" r="1.5" fill="#FF5E69" opacity="0.4"/>
      <circle cx="90" cy="30" r="2.5" fill="#FF5E69" opacity="0.5"/>
      
      <circle cx="10" cy="50" r="2.5" fill="#FF5E69" opacity="0.4"/>
      <circle cx="30" cy="50" r="1.5" fill="#FF5E69" opacity="0.3"/>
      <circle cx="50" cy="50" r="2" fill="#FF5E69" opacity="0.5"/>
      <circle cx="70" cy="50" r="3" fill="#FF5E69" opacity="0.3"/>
      <circle cx="90" cy="50" r="2" fill="#FF5E69" opacity="0.4"/>
      
      <circle cx="10" cy="70" r="1.5" fill="#FF5E69" opacity="0.5"/>
      <circle cx="30" cy="70" r="2.5" fill="#FF5E69" opacity="0.3"/>
      <circle cx="50" cy="70" r="3" fill="#FF5E69" opacity="0.4"/>
      <circle cx="70" cy="70" r="2" fill="#FF5E69" opacity="0.5"/>
      <circle cx="90" cy="70" r="1.5" fill="#FF5E69" opacity="0.3"/>
      
      <circle cx="10" cy="90" r="2" fill="#FF5E69" opacity="0.4"/>
      <circle cx="30" cy="90" r="3" fill="#FF5E69" opacity="0.5"/>
      <circle cx="50" cy="90" r="2.5" fill="#FF5E69" opacity="0.3"/>
      <circle cx="70" cy="90" r="1.5" fill="#FF5E69" opacity="0.4"/>
      <circle cx="90" cy="90" r="2" fill="#FF5E69" opacity="0.5"/>
    </pattern>
  </defs>
  <rect width="100%" height="100%" fill="url(#design-pattern)"/>
</svg> 