<svg width="100" height="100" viewBox="0 0 100 100" xmlns="http://www.w3.org/2000/svg">
  <defs>
    <pattern id="tools-pattern" patternUnits="userSpaceOnUse" width="100" height="100">
      <rect width="100" height="100" fill="none"/>
      
      <!-- Wrench -->
      <path d="M15,15 L20,20 L23,17 L20,14 L25,9 L29,13 L32,10 L24,2 L15,11 Z" fill="#00BFA6" opacity="0.4"/>
      
      <!-- Pencil -->
      <path d="M70,10 L75,15 L65,25 L60,20 Z" fill="#00BFA6" opacity="0.3"/>
      <path d="M60,20 L55,25 L60,30 L65,25 Z" fill="#00BFA6" opacity="0.4"/>
      
      <!-- Gear -->
      <path d="M42,40 L44,35 L48,35 L50,40 L55,42 L58,39 L60,41 L58,46 L60,50 L58,55 L54,57 L50,55 L45,57 L43,54 L40,50 L42,45 Z" fill="#00BFA6" opacity="0.3"/>
      <circle cx="50" cy="47" r="3" fill="#00BFA6" opacity="0.5"/>
      
      <!-- Brush -->
      <path d="M15,75 Q20,65 25,75 L20,85 Z" fill="#00BFA6" opacity="0.4"/>
      
      <!-- Ruler -->
      <rect x="70" y="60" width="20" height="5" fill="#00BFA6" opacity="0.3"/>
      <path d="M70,60 L70,65 M75,60 L75,67 M80,60 L80,65 M85,60 L85,67 M90,60 L90,65" stroke="#00BFA6" stroke-width="1" opacity="0.5"/>
      
      <!-- Compass -->
      <circle cx="85" cy="30" r="8" stroke="#00BFA6" stroke-width="1" fill="none" opacity="0.4"/>
      <path d="M85,30 L90,20" stroke="#00BFA6" stroke-width="1" opacity="0.3"/>
      <circle cx="85" cy="30" r="1" fill="#00BFA6" opacity="0.5"/>
    </pattern>
  </defs>
  <rect width="100%" height="100%" fill="url(#tools-pattern)"/>
</svg> 